# xmcd
#
# Track frame offsets:
# 150
# 22792
# 38119
# 58095
# 60848
# 84972
# 105633
# 129637
# 148459
# 161169
# 180922
# 194857
# 206203
# 216468
# 234834
# 251053
# 266080
# 277684
# 297659
# 314300
# 335542
# 352054
#
# Disc length: 4799 seconds
#
# Revision: 0
# Processed by: cddbd v1.5.1PL2 Copyright (c) Steve Scherf et al.
# Submitted via: Audion 3.0.2 (http://www.panic.com/audion/)
#
DISCID=5912bd16
DTITLE=direct - danq logic
DYEAR=1900
DGENRE=
TTITLE0=l
TTITLE1=l
TTITLE2=l
TTITLE3=l
TTITLE4=l
TTITLE5=l
TTITLE6=l
TTITLE7=l
TTITLE8=l
TTITLE9=l
TTITLE10=l
TTITLE11=l
TTITLE12=l
TTITLE13=l
TTITLE14=l
TTITLE15=l
TTITLE16=l
TTITLE17=l
TTITLE18=l
TTITLE19=l
TTITLE20=l
TTITLE21=l
EXTD=
EXTT0=
EXTT1=
EXTT2=
EXTT3=
EXTT4=
EXTT5=
EXTT6=
EXTT7=
EXTT8=
EXTT9=
EXTT10=
EXTT11=
EXTT12=
EXTT13=
EXTT14=
EXTT15=
EXTT16=
EXTT17=
EXTT18=
EXTT19=
EXTT20=
EXTT21=
PLAYORDER=
